<?xml version="1.0" standalone="no"?>
<!DOCTYPE svg PUBLIC "-//W3C//DTD SVG 20010904//EN"
 "http://www.w3.org/TR/2001/REC-SVG-20010904/DTD/svg10.dtd">
<svg version="1.0" xmlns="http://www.w3.org/2000/svg"
 width="951.000000pt" height="951.000000pt" viewBox="0 0 951.000000 951.000000"
 preserveAspectRatio="xMidYMid meet">
<metadata>
Created by potrace 1.11, written by Peter Selinger 2001-2013
</metadata>
<g transform="translate(0.000000,951.000000) scale(0.100000,-0.100000)"
fill="#000000" stroke="none">
<path d="M3600 8621 c-53 -20 -1095 -745 -1158 -805 -24 -23 -59 -73 -80 -115
l-37 -75 -5 -648 -5 -647 -550 -386 c-302 -212 -569 -405 -593 -428 -24 -23
-60 -76 -80 -116 l-37 -75 -3 -1379 -2 -1379 26 -58 c14 -32 38 -69 52 -83 41
-38 1928 -1356 1957 -1367 44 -17 156 -12 200 9 22 10 417 284 879 609 l838
590 132 -93 c140 -99 1669 -1059 1723 -1081 18 -8 50 -14 72 -14 33 0 44 6 72
37 18 21 108 192 202 383 963 1961 1204 2453 1315 2685 73 152 86 188 86 232
1 46 -3 56 -34 88 -19 19 -210 160 -425 312 -214 152 -402 287 -417 301 l-26
24 -4 347 c-3 345 -3 346 -27 388 -14 24 -50 62 -80 86 -99 77 -855 604 -898
625 -62 32 -112 37 -178 17 -66 -19 -93 -34 -272 -162 -72 -51 -134 -93 -137
-93 -3 0 -6 129 -6 288 0 280 -1 288 -24 337 -12 28 -39 64 -58 80 -51 44
-762 547 -804 569 -52 27 -138 25 -206 -6 -29 -14 -109 -64 -177 -112 -69 -49
-130 -90 -137 -93 -10 -4 -13 50 -16 254 -3 250 -4 259 -27 308 -14 27 -43 67
-65 88 -54 51 -777 552 -818 566 -45 16 -116 13 -168 -8z m132 -2377 l3 -1931
-30 -47 c-26 -41 -159 -138 -1120 -812 l-1090 -766 -3 1219 c-2 1091 -1 1222
13 1260 21 54 46 86 98 121 23 15 67 46 97 67 30 21 100 70 155 109 123 86
133 93 480 336 409 287 380 264 404 319 21 49 21 60 21 689 l0 639 23 44 c20
39 66 74 397 306 206 144 413 289 460 322 46 33 85 59 86 58 1 -1 4 -871 6
-1933z m1426 578 l-4 -359 -26 -44 c-26 -44 -204 -175 -828 -607 l-120 -83 0
356 c0 342 1 357 21 401 14 29 40 59 73 84 113 85 870 610 879 610 6 0 8 -129
5 -358z m1622 -560 c107 -76 303 -214 435 -306 132 -93 243 -172 248 -176 7
-6 11 -880 5 -885 -5 -3 -431 -303 -808 -570 -200 -141 -369 -259 -375 -261
-7 -3 -9 133 -8 433 l3 438 -41 28 c-23 16 -122 86 -221 155 -99 70 -279 197
-401 282 -121 85 -220 159 -220 165 0 5 150 115 334 244 760 533 842 591 848
591 3 0 94 -62 201 -138z m-1628 -1474 c-4 -1049 -4 -1074 -24 -1115 -18 -39
-112 -107 -1161 -845 -628 -441 -1185 -832 -1237 -869 l-95 -68 -3 477 c-3
578 -9 548 128 643 36 25 180 127 320 226 255 179 582 410 885 621 140 98 163
119 188 163 l27 51 0 524 0 525 25 49 c21 42 45 63 187 163 569 400 752 527
757 527 4 0 5 -483 3 -1072z m2591 38 c353 -248 617 -439 617 -446 0 -8 -96
-207 -347 -720 -77 -157 -241 -492 -365 -745 -124 -253 -319 -649 -432 -880
-114 -231 -237 -482 -273 -558 -37 -76 -69 -136 -73 -135 -32 15 -1494 936
-1559 983 -47 34 -228 162 -401 285 -173 123 -339 241 -368 262 l-53 40 178
125 c98 70 295 210 438 312 143 101 267 185 275 185 8 0 193 -126 410 -280
217 -154 416 -295 443 -312 l47 -33 0 375 0 375 -267 187 c-148 103 -326 229
-398 279 -71 50 -151 106 -177 124 -27 17 -48 35 -48 39 1 15 164 121 174 113
13 -10 562 -397 654 -461 l63 -43 27 20 c26 19 619 436 1116 785 131 92 243
168 248 168 5 0 37 -20 71 -44z"/>
<path d="M2480 5132 c-8 -3 -39 -23 -68 -45 -38 -28 -61 -54 -78 -90 -24 -52
-24 -53 -24 -419 0 -431 -14 -386 147 -473 124 -67 151 -69 217 -20 83 64 81
54 84 450 2 238 0 361 -8 385 -7 24 -33 54 -82 95 -125 105 -159 127 -188 117z"/>
</g>
</svg>
